M48
; DRILL file {KiCad (6.0.2)} date Sun 20 Feb 2022 02:38:25 PM CET
; FORMAT={-:-/ absolute / inch / decimal}
; #@! TF.CreationDate,2022-02-20T14:38:25+01:00
; #@! TF.GenerationSoftware,Kicad,Pcbnew,(6.0.2)
; #@! TF.FileFunction,Plated,1,2,PTH
FMAT,2
INCH
; #@! TA.AperFunction,Plated,PTH,ComponentDrill
T1C0.0315
; #@! TA.AperFunction,Plated,PTH,ComponentDrill
T2C0.0394
; #@! TA.AperFunction,Plated,PTH,ComponentDrill
T3C0.0433
%
G90
G05
T1
X2.6047Y-3.9104
X2.6047Y-4.2104
X2.8583Y-4.094
X2.8583Y-4.194
X2.8583Y-4.294
X2.8583Y-4.394
X2.8583Y-4.494
X2.8583Y-4.594
X2.8583Y-4.694
X2.8583Y-4.794
X2.8583Y-4.894
X2.8583Y-4.994
X2.8583Y-5.094
X2.8583Y-5.194
X2.8583Y-5.294
X2.8583Y-5.394
X3.1583Y-4.094
X3.1583Y-4.194
X3.1583Y-4.294
X3.1583Y-4.394
X3.1583Y-4.494
X3.1583Y-4.594
X3.1583Y-4.694
X3.1583Y-4.794
X3.1583Y-4.894
X3.1583Y-4.994
X3.1583Y-5.094
X3.1583Y-5.194
X3.1583Y-5.294
X3.1583Y-5.394
X3.6322Y-3.955
X3.6322Y-4.055
X3.6322Y-4.155
X3.6322Y-4.255
X3.6322Y-4.355
X3.6322Y-4.455
X4.0247Y-5.0902
X4.0247Y-5.3902
X4.0259Y-3.955
X4.0259Y-4.055
X4.0259Y-4.155
X4.0259Y-4.255
X4.0259Y-4.355
X4.0259Y-4.455
X4.1349Y-3.5407
X4.1817Y-5.0884
X4.1817Y-5.3884
X4.2333Y-3.5407
X4.3703Y-4.9402
X4.4Y-3.75
X4.4Y-4.05
X4.6Y-3.75
X4.6Y-4.05
X4.6703Y-4.9402
T2
X3.0Y-3.5
X3.1969Y-3.5
X3.5108Y-5.1196
X3.5108Y-5.2196
X3.5108Y-5.3196
X3.5108Y-5.4196
X3.5108Y-5.5196
X3.7Y-3.5
X3.7676Y-4.6658
X3.7676Y-4.7658
X3.7676Y-4.8658
X3.7676Y-4.9658
X3.7676Y-5.0658
X3.8Y-3.5
X4.4822Y-5.2426
X4.4822Y-5.3426
X4.4822Y-5.4426
X4.4822Y-5.5426
X4.4847Y-4.4309
X4.4847Y-4.5309
X4.4847Y-4.6309
X4.4847Y-4.7309
X4.5822Y-5.2426
X4.5822Y-5.3426
X4.5822Y-5.4426
X4.5822Y-5.5426
X4.5847Y-4.4309
X4.5847Y-4.5309
X4.5847Y-4.6309
X4.5847Y-4.7309
T3
X3.0Y-3.8
X3.1Y-3.8
X3.2Y-3.8
T0
M30
